    <svg
      xmlns="http://www.w3.org/2000/svg"
      width="62"
      height="62"
      preserveAspectRatio="xMidYMid meet"
      version="1"
      viewBox="0 0 46.5 46.5"
    >
      <g fill="#000" stroke="none" transform="matrix(.1 0 0 -.1 0 1497)">
        <g strokeWidth="0.031" transform="translate(-7266.815 7249.011)">
          <path d="M7506.872 7720.272c-.31-.093-.403-1.55-.403-5.706 0-3.039-.062-5.55-.124-5.55-.093 0-2.357.775-5.024 1.705-2.698.93-5.148 1.706-5.458 1.706-.403 0-.713-.62-1.302-2.512-.496-1.644-.682-2.698-.527-3.04.186-.31 2.232-1.084 5.271-2.046 3.194-.961 4.962-1.643 4.869-1.891-.062-.186-1.458-2.171-3.101-4.404-1.644-2.232-2.977-4.28-2.977-4.558 0-.496 3.566-3.256 4.217-3.256.558 0 .9.403 4 4.744 1.551 2.17 2.884 3.939 3.009 3.939.093 0 1.612-1.954 3.349-4.342 1.984-2.729 3.318-4.341 3.659-4.341.682 0 4.403 2.667 4.403 3.163 0 .186-1.395 2.295-3.1 4.651-1.706 2.357-3.102 4.404-3.102 4.528 0 .155 2.202.93 4.9 1.736 2.667.838 5.054 1.675 5.302 1.923.373.34.342.775-.279 2.915-.403 1.457-.93 2.605-1.178 2.729-.28.093-2.667-.559-5.334-1.427-2.636-.9-4.93-1.612-5.054-1.612-.124 0-.217 2.232-.217 4.992 0 2.822-.124 5.24-.31 5.582-.28.496-.652.59-2.73.558-1.302 0-2.573-.093-2.76-.186z"></path>
          <path d="M7452.387 7715.063c-.092-.28-.186-2.822-.186-5.613 0-2.791-.03-5.086-.093-5.086-.03 0-2.356.775-5.116 1.675-2.791.93-5.24 1.643-5.458 1.55-.465-.186-1.83-4.837-1.581-5.458.093-.217 2.48-1.178 5.302-2.108l5.117-1.706-3.256-4.496c-1.799-2.481-3.287-4.559-3.287-4.652 0-.527 3.814-3.41 4.527-3.41.217 0 1.86 2.015 3.628 4.496l3.256 4.527 2.73-3.814c3.131-4.435 3.782-5.21 4.372-5.21.434 0 3.814 2.357 4.186 2.915.28.403 0 .837-3.566 5.706-1.52 2.109-2.729 3.876-2.667 3.907.062.062 2.357.837 5.086 1.706 2.729.899 5.085 1.736 5.271 1.922.31.31-.65 4.652-1.24 5.458-.341.465-.9.341-5.52-1.24-2.822-.962-5.21-1.768-5.302-1.768-.093 0-.218 2.48-.249 5.52l-.093 5.488-2.821.093c-2.388.062-2.884 0-3.04-.403z"></path>
          <path d="M7560.798 7711.434c-.248-.248-.372-1.984-.372-5.768 0-4.186-.093-5.364-.372-5.271-5.737 2.046-9.923 3.38-10.265 3.256-.527-.186-1.86-4.31-1.705-5.24.062-.528 1.023-.931 5.303-2.327l5.21-1.674-.745-.992c-2.109-2.791-5.799-8.063-5.799-8.311 0-.28 2.76-2.388 3.938-3.039.62-.31.807-.217 1.923 1.178.651.869 2.17 2.884 3.318 4.497 1.178 1.643 2.202 2.977 2.295 2.977.093 0 1.21-1.427 2.48-3.163 3.97-5.551 4.28-5.892 5.055-5.458 1.179.62 3.938 2.729 3.938 3.008 0 .248-3.69 5.52-5.798 8.31l-.745.993 5.055 1.612c2.79.9 5.21 1.83 5.427 2.047.279.341.155.992-.434 2.822-.435 1.302-.993 2.543-1.24 2.729-.342.279-1.52 0-5.242-1.303-2.635-.93-5.023-1.674-5.271-1.674-.372 0-.434.9-.434 5.396 0 4.62-.062 5.426-.496 5.581-.869.342-4.652.186-5.024-.186z"></path>
          <path d="M7401.252 7698.596c-.124-.124-.217-2.636-.217-5.613 0-4.34-.093-5.364-.434-5.364-.217 0-2.48.713-4.992 1.55-2.543.869-4.869 1.55-5.21 1.489-.465-.062-.775-.651-1.334-2.512-.403-1.333-.65-2.605-.527-2.853.093-.28 2.233-1.116 5.179-2.047 2.729-.899 5.054-1.643 5.116-1.705.063-.062-1.147-1.799-2.666-3.907-3.939-5.396-3.939-5.365-3.411-5.892 1.023-1.024 3.938-2.791 4.341-2.636.248.093 1.83 2.078 3.504 4.372 1.675 2.326 3.132 4.218 3.225 4.218.093 0 1.613-1.954 3.38-4.342 1.737-2.387 3.38-4.341 3.628-4.341.559 0 4.063 2.512 4.31 3.07.094.217-1.27 2.388-3.1 4.9-1.83 2.48-3.256 4.527-3.194 4.558.062.03 2.419.806 5.302 1.736 4.838 1.55 5.179 1.706 5.179 2.42 0 1.178-1.24 5.054-1.643 5.178-.218.093-2.667-.682-5.49-1.644l-5.116-1.798-.155 5.582-.155 5.612-2.636.093c-1.457.031-2.76 0-2.884-.124z"></path>
          <path d="M7609.949 7687.123c-.125-.124-.218-2.636-.218-5.613 0-3.101-.124-5.365-.279-5.365-.155 0-2.542.775-5.302 1.737-3.753 1.302-5.086 1.674-5.365 1.395-.434-.434-1.768-4.961-1.582-5.427.062-.186 2.42-1.116 5.241-2.046l5.086-1.706-3.287-4.465c-2.574-3.442-3.225-4.559-3.008-4.93.496-.776 4.155-3.164 4.558-2.978.217.093 1.737 2.047 3.411 4.342 1.675 2.294 3.194 4.155 3.318 4.155.155 0 1.706-1.954 3.442-4.341 1.737-2.388 3.318-4.342 3.536-4.342.465 0 4.248 2.822 4.403 3.256.062.186-1.364 2.357-3.163 4.807l-3.287 4.496 5.148 1.675c3.163 1.023 5.24 1.83 5.333 2.14.248.62-.837 4.961-1.333 5.364-.31.248-1.706-.093-5.303-1.302-2.698-.869-5.085-1.675-5.272-1.737-.31-.124-.403 1.179-.465 5.396l-.093 5.52-2.635.093c-1.458.03-2.76 0-2.884-.124z"></path>
          <path d="M7354.83 7664.361c0-4.341-.092-5.612-.372-5.52-.217.063-2.666.869-5.426 1.8-2.76.93-5.117 1.58-5.24 1.488-.435-.465-1.582-5.086-1.334-5.551.124-.28 2.232-1.085 4.992-1.954 2.605-.837 4.869-1.612 5.024-1.767.124-.124-1.147-2.171-2.884-4.528-1.706-2.356-3.132-4.496-3.132-4.744.03-.496 3.318-3.008 4.217-3.163.372-.062 1.427 1.116 3.566 4.062 1.675 2.264 3.163 4.28 3.287 4.404.156.155 1.582-1.52 3.256-3.846 1.644-2.294 3.226-4.31 3.474-4.527.403-.341.806-.186 2.511.93 1.086.744 2.078 1.613 2.171 1.923.155.372-.806 1.891-3.07 4.961l-3.225 4.404 5.055 1.705c2.79.93 5.24 1.86 5.426 2.047.559.558-1.116 5.706-1.798 5.706-.31 0-2.822-.745-5.582-1.675l-5.024-1.674-.062 5.457-.093 5.49-2.852.092-2.884.093z"></path>
          <path d="M7651.502 7652.36c-.124-.092-.217-2.604-.217-5.581 0-2.946-.124-5.365-.28-5.365-.155 0-2.48.775-5.178 1.706-2.698.96-5.055 1.674-5.272 1.581-.434-.186-1.674-4.031-1.674-5.24 0-.776.248-.869 5.054-2.388 2.76-.9 5.055-1.644 5.117-1.706.062-.062-1.334-2.016-3.07-4.372-1.737-2.357-3.163-4.497-3.194-4.745-.031-.496 3.659-3.442 4.31-3.442.217 0 1.83 1.954 3.597 4.342 1.768 2.356 3.35 4.279 3.535 4.217.156-.031 1.644-1.954 3.319-4.248 1.674-2.295 3.256-4.187 3.504-4.249.589-.124 4.496 2.636 4.496 3.194 0 .217-1.395 2.295-3.1 4.62-1.706 2.326-3.102 4.342-3.102 4.466 0 .155 2.295.992 5.086 1.892 2.79.899 5.178 1.798 5.271 2.046.187.527-.992 4.838-1.488 5.365-.31.31-1.333.062-5.458-1.333-2.76-.93-5.178-1.706-5.302-1.706-.155 0-.28 2.512-.28 5.582v5.582h-2.728c-1.52 0-2.853-.093-2.946-.217z"></path>
          <path d="M7316.936 7630.84c-.496-.28-.558-.9-.558-5.768 0-4.217-.093-5.396-.372-5.303-7.318 2.574-9.923 3.38-10.233 3.256-.465-.186-1.954-4.961-1.736-5.55.092-.218 2.511-1.148 5.333-2.047l5.179-1.644-.713-.992c-.373-.558-1.861-2.574-3.256-4.527-1.427-1.923-2.574-3.629-2.574-3.784 0-.279 2.76-2.387 3.907-3.008.341-.186.775-.248.93-.124.186.124 1.706 2.078 3.38 4.342 1.644 2.264 3.132 4.093 3.256 4.031.155-.062 1.644-1.985 3.318-4.28 1.706-2.294 3.287-4.217 3.536-4.279.65-.124 4.31 2.636 4.31 3.287 0 .31-1.396 2.481-3.132 4.838-1.706 2.357-3.07 4.31-3.008 4.372.062.062 2.357.807 5.148 1.706 2.977.93 5.147 1.798 5.24 2.047.248.65-1.178 5.426-1.674 5.612-.341.124-4.59-1.21-10.233-3.256-.31-.093-.404 1.055-.404 5.148 0 6.326.031 6.264-3.039 6.264-1.147 0-2.325-.155-2.604-.341z"></path>
          <path d="M7683.41 7608.668c-.092-.28-.185-2.791-.185-5.582 0-2.79-.124-5.086-.28-5.086-.154 0-2.45.776-5.116 1.706-2.667.93-5.024 1.612-5.272 1.52-.372-.156-1.736-4.404-1.736-5.49 0-.371 1.302-.93 4.9-2.077a692.38 692.38 0 015.271-1.706c.248-.093-.527-1.364-2.202-3.628a344.972 344.972 0 00-3.287-4.465c-.527-.713-.65-1.116-.434-1.489.341-.62 3.752-2.977 4.28-2.977.217 0 1.86 2.016 3.628 4.466l3.256 4.496 2.729-3.783c3.131-4.31 3.845-5.179 4.34-5.179.683 0 4.187 2.791 4.187 3.35-.03.279-1.426 2.418-3.1 4.713-1.706 2.295-3.102 4.248-3.102 4.341 0 .093 2.295.9 5.117 1.799 2.822.9 5.21 1.83 5.303 2.047.248.682-1.117 5.395-1.613 5.581-.248.093-2.605-.589-5.272-1.52-2.666-.93-4.961-1.705-5.116-1.705-.155 0-.28 2.295-.28 5.086 0 2.79-.092 5.303-.185 5.582-.155.403-.714.496-2.915.496-2.202 0-2.76-.093-2.915-.496z"></path>
          <path d="M7291.663 7582.278c-.31-.093-.403-1.55-.403-5.675v-5.52l-5.116 1.706c-2.822.93-5.334 1.613-5.582 1.52-.496-.186-1.799-4.248-1.644-5.24.093-.559.869-.9 5.303-2.327l5.21-1.643-.744-.992c-4.59-6.078-5.892-8.063-5.582-8.56.31-.526 4-3.131 4.372-3.131.124.03 1.675 2.047 3.442 4.496 1.799 2.481 3.256 4.497 3.287 4.497.062 0 1.489-1.954 3.256-4.342 1.737-2.387 3.287-4.434 3.473-4.527.466-.28 4.59 2.636 4.59 3.256 0 .279-1.396 2.45-3.101 4.807-1.706 2.356-3.101 4.34-3.101 4.372 0 .062 2.388.9 5.272 1.86 6.015 2.016 5.674 1.613 4.59 5.303-.466 1.644-.807 2.295-1.148 2.295-.28 0-2.791-.744-5.551-1.675l-5.024-1.705v5.365c0 3.72-.124 5.457-.372 5.705-.372.372-4.62.496-5.427.155z"></path>
          <path d="M7431.735 7556.757v-17.675h5.272v16.125h13.954v5.271h-13.954v8.683h18.605v5.272H7431.735z"></path>
          <path d="M7476.854 7574.154c-.093-.155-2.76-7.38-5.923-16.063-3.132-8.652-6.015-16.498-6.326-17.397l-.62-1.643 2.853.093 2.822.093 1.768 4.961 1.798 4.962H7484.545l1.767-4.962 1.768-4.961 2.822-.093 2.822-.093-.404 1.178c-2.48 6.853-11.783 32.343-12.124 33.15-.435 1.023-.466 1.054-2.295 1.054-1.023 0-1.923-.124-2.047-.28zm3.845-13.893c.93-2.698 1.737-5.085 1.83-5.271.093-.31-.775-.403-3.66-.403-2.883 0-3.751.093-3.658.403.093.186.899 2.574 1.83 5.271.899 2.667 1.736 4.869 1.829 4.869.093 0 .93-2.202 1.83-4.869z"></path>
          <path d="M7505.445 7574.216c-.124-.093-.217-1.303-.217-2.636v-2.419h7.443v-24.808h-7.784l.093-2.543.093-2.573 10.482-.093 10.45-.062v5.271h-7.753v24.808h7.474l-.093 2.574-.093 2.543-9.954.093c-5.458.03-10.016-.031-10.14-.155z"></path>
          <path d="M7540.89 7556.757v-17.675h5.271v14.264h7.753l.713-1.457c.403-.838 1.83-4.032 3.163-7.133l2.45-5.674h2.884c1.581 0 2.884.062 2.884.124s-1.458 3.41-3.257 7.442c-1.798 4.031-3.256 7.442-3.256 7.566 0 .124.497.497 1.117.838 1.643.899 3.41 3.597 4.248 6.543l.744 2.512-.744 2.604c-.682 2.357-.93 2.791-2.605 4.497-1.736 1.736-2.015 1.922-4.434 2.543-2.326.62-3.38.682-9.768.682h-7.163zm15.38 11.939c3.598-1.054 4.745-4.683 2.512-8.094-1.147-1.736-2.108-1.984-7.66-1.984h-4.96v10.543h4.279c2.884 0 4.806-.155 5.83-.465z"></path>
          <path d="M7704.684 7558.866c-.249-.248-.373-1.985-.373-5.706v-5.365l-5.116 1.737c-2.791.93-5.272 1.643-5.52 1.55-.465-.186-1.892-4.992-1.675-5.612.094-.186 2.481-1.117 5.303-2.016l5.148-1.643-.682-.962c-.403-.558-1.861-2.574-3.256-4.496-1.427-1.954-2.574-3.66-2.574-3.814 0-.28 2.79-2.45 3.907-3.008.341-.186.775-.248.93-.124.186.124 1.644 2.046 3.225 4.248 1.582 2.233 2.977 4.155 3.101 4.28.124.154 1.675-1.706 3.411-4.094 1.768-2.419 3.318-4.465 3.473-4.558.466-.31 4.59 2.666 4.59 3.287 0 .31-1.396 2.45-3.101 4.775-1.706 2.326-3.101 4.28-3.101 4.373 0 .062 2.264.868 5.055 1.736 2.76.868 5.147 1.706 5.333 1.86.341.31-.682 4.683-1.271 5.49-.341.496-.806.372-5.675-1.241l-5.303-1.737v5.334c0 3.721-.124 5.458-.372 5.706-.217.217-1.302.372-2.729.372-1.426 0-2.511-.155-2.728-.372z"></path>
          <path d="M7279.384 7529.252c-.124-.094-.217-2.667-.217-5.706v-5.52l-4.838 1.675c-2.667.93-5.148 1.705-5.55 1.705-.59 0-.776-.341-1.396-2.45-.372-1.333-.62-2.667-.558-2.946.062-.372 1.55-1.023 5.302-2.232l5.21-1.737-.744-.961c-2.078-2.76-5.8-8.063-5.8-8.28 0-.496 4.001-3.163 4.56-3.039.31.062 1.922 1.985 3.597 4.28 1.674 2.294 3.132 4.217 3.256 4.248.124.03 1.612-1.892 3.318-4.248 1.891-2.667 3.287-4.342 3.628-4.342.837 0 4.28 2.543 4.28 3.163 0 .31-1.396 2.48-3.102 4.807-1.705 2.325-3.008 4.341-2.884 4.465.155.124 2.357.868 4.9 1.675 2.574.806 4.837 1.643 5.085 1.86.373.372.373.713-.124 2.543-.713 2.698-.961 3.194-1.674 3.194-.31 0-2.76-.775-5.427-1.705l-4.837-1.675v5.334c0 3.752-.124 5.488-.373 5.737-.403.403-5.24.527-5.612.155z"></path>
          <path d="M7430.929 7505.622c-.062-.062-.124-8-.124-17.614v-17.458h13.179l2.79 1.085c2.357.9 3.07 1.365 4.528 2.853 6.791 6.977 6.915 19.753.31 27.103-1.333 1.488-1.984 1.922-4.31 2.853l-2.729 1.116-6.76.093c-3.721.062-6.822.031-6.884-.031zm14.11-5.923c1.953-.775 3.534-2.388 4.775-4.961.961-1.985.992-2.078.992-6.512 0-4.466 0-4.528-1.023-6.699-1.24-2.635-2.698-4.124-4.993-5.023-1.364-.558-2.295-.682-5.179-.682h-3.535v24.497h3.721c2.946 0 4-.124 5.241-.62z"></path>
          <path d="M7476.885 7505.622c-.155-.217-5.55-14.947-12.466-33.925l-.403-1.178 2.822.093 2.853.093 1.767 4.961 1.737 4.962H7484.514l1.798-4.962 1.768-4.961 2.822-.093 2.853-.093-.993 2.729c-.558 1.488-3.442 9.427-6.45 17.613l-5.427 14.885-1.922.093c-1.054.062-1.985-.03-2.078-.217zm3.814-13.923c.93-2.667 1.737-5.055 1.83-5.241.093-.31-.775-.403-3.66-.403-2.883 0-3.751.093-3.658.403.093.186.899 2.574 1.83 5.24.93 2.699 1.736 4.9 1.829 4.9.093 0 .9-2.201 1.83-4.9z"></path>
          <path d="M7501.817 7503.11v-2.79h10.854v-29.77h5.271v29.769h11.164v5.582h-27.289z"></path>
          <path d="M7549.851 7505.064c-1.612-4.249-12.373-33.987-12.373-34.235 0-.186 1.024-.28 2.698-.217l2.73.093 1.333 3.721c.713 2.047 1.52 4.31 1.798 5.055l.496 1.302 5.613-.062 5.644-.093 1.736-4.961 1.737-4.962 2.884-.093c2.636-.093 2.853-.031 2.636.465-.124.31-2.946 8.032-6.264 17.149s-6.171 16.838-6.326 17.117c-.248.434-.713.558-2.17.558-1.738 0-1.862-.062-2.172-.837zm5.892-18.761c.031-.155-1.643-.248-3.72-.248-3.443 0-3.753.03-3.536.558.124.28.9 2.543 1.736 5.024.838 2.48 1.613 4.713 1.706 4.961.155.372 3.752-9.365 3.814-10.295z"></path>
          <path d="M7713.49 7502.645c-.093-.279-.186-2.822-.186-5.613 0-2.79-.03-5.085-.062-5.085-.062 0-2.263.682-4.9 1.55-2.635.837-5.116 1.55-5.488 1.55-.59 0-.775-.34-1.334-2.232-.372-1.24-.713-2.45-.775-2.667-.217-.558.496-.9 5.83-2.636l4.869-1.612-3.256-4.466c-1.799-2.48-3.256-4.558-3.256-4.651.03-.403.558-.9 2.387-2.17 1.334-.931 2.047-1.241 2.357-1.055.28.124 1.83 2.14 3.473 4.434 1.675 2.295 3.07 4.218 3.101 4.28.062.062 1.55-1.892 3.318-4.31 1.768-2.45 3.38-4.466 3.566-4.528.528-.186 4.28 2.543 4.373 3.194.062.372-1.117 2.233-3.04 4.837-1.705 2.357-3.1 4.31-3.1 4.404 0 .062 2.264.837 5.054 1.736 2.76.869 5.148 1.737 5.334 1.892.31.31-.651 4.651-1.271 5.489-.372.496-2.109 0-10.575-2.977-.31-.093-.403 1.21-.465 5.426l-.093 5.52-2.822.093c-2.387.062-2.884 0-3.039-.403z"></path>
          <path d="M7279.694 7475.015c-.124-.124-.217-2.636-.217-5.613 0-2.945-.031-5.364-.093-5.364-.031 0-2.388.775-5.179 1.705-2.822.93-5.272 1.644-5.458 1.582-.465-.186-1.736-4.372-1.612-5.24.093-.59.837-.931 5.302-2.388l5.21-1.706-3.287-4.466c-1.798-2.45-3.256-4.558-3.256-4.682 0-.713 4.031-3.504 4.683-3.256.248.093 1.023.961 1.705 1.954.713.96 2.109 2.914 3.132 4.341l1.86 2.543 3.195-4.373c1.736-2.387 3.349-4.434 3.597-4.527.59-.217 4.465 2.605 4.465 3.256 0 .28-1.426 2.45-3.132 4.806-1.736 2.357-3.07 4.342-3.039 4.373.062.062 2.42.868 5.21 1.767 2.79.93 5.148 1.861 5.21 2.078.217.558-1.179 5.365-1.582 5.52-.186.062-2.636-.651-5.458-1.582-2.79-.93-5.116-1.705-5.178-1.705-.031 0-.124 2.48-.155 5.52l-.093 5.488-2.791.093c-1.55.031-2.915 0-3.04-.124z"></path>
          <path d="M7704.994 7448.781c-.28-.28-.372-1.892-.372-5.737v-5.333l-5.055 1.736c-2.791.961-5.272 1.675-5.52 1.581-.279-.123-.775-1.27-1.21-2.728-.62-2.171-.65-2.574-.278-2.946.248-.217 2.325-.993 4.62-1.706s4.497-1.426 4.869-1.581c.682-.248.558-.465-2.543-4.683-1.799-2.45-3.256-4.59-3.256-4.806 0-.465 3.783-3.194 4.434-3.194.28 0 1.892 1.922 3.66 4.341 2.294 3.194 3.224 4.28 3.503 4.062.218-.186 1.706-2.14 3.319-4.372 1.581-2.202 3.132-4.031 3.38-4.031.775 0 4.341 2.605 4.341 3.163 0 .31-1.333 2.356-2.946 4.59-1.643 2.232-3.039 4.217-3.1 4.434-.094.248 1.488.899 4.713 1.922 2.635.837 5.054 1.706 5.302 1.892.434.31.403.589-.124 2.605-.961 3.752-.651 3.659-6.853 1.55l-5.365-1.83-.062 5.644-.093 5.644-2.48.093c-1.675.062-2.605-.03-2.884-.31z"></path>
          <path d="M7382.74 7436.873c-1.923-.651-2.636-1.085-4.063-2.48-1.426-1.396-1.83-2.078-2.419-3.877-.65-1.984-.682-2.356-.34-4.341.464-2.698 1.674-4.559 4.062-6.233 1.364-.961 2.76-1.489 6.574-2.574 2.636-.744 5.271-1.582 5.799-1.86 2.108-1.086 2.821-4.063 1.457-6.079-1.023-1.55-2.698-2.263-5.706-2.387-3.597-.186-6.45.713-8.31 2.543l-1.334 1.364-1.891-1.923-1.892-1.922 1.302-1.24c2.016-1.923 2.977-2.481 5.861-3.35 2.109-.65 3.287-.806 5.768-.806 5.768 0 9.613 2.109 11.505 6.264.992 2.264.93 5.024-.155 7.908-.776 2.077-.962 2.294-2.884 3.566-1.644 1.116-2.915 1.612-6.978 2.729-6.853 1.891-8.186 2.915-7.814 6.078.279 2.511 2.729 4.155 6.233 4.155 1.891 0 5.799-1.054 7.287-1.985.62-.372 1.272-.775 1.458-.9.217-.123.806.466 1.426 1.427 1.985 3.008 2.016 2.76-.155 4-1.054.62-3.256 1.49-4.9 1.923-3.845 1.024-6.698 1.024-9.892 0z"></path>
          <path d="M7419.424 7436.656c-4.651-1.798-7.752-5.52-8.9-10.667-.651-2.977-.682-9.861 0-12.683 2.078-8.993 10.264-13.769 18.296-10.668 3.132 1.21 5.272 3.225 6.977 6.605 1.582 3.132 2.14 5.861 2.14 10.606 0 4.62-.527 7.101-2.14 10.357-1.612 3.163-3.845 5.148-7.411 6.481-3.473 1.334-5.489 1.334-8.962-.03zm7.35-4.9c2.077-.775 3.224-1.798 4.248-3.845 1.24-2.387 1.643-4.341 1.643-7.97 0-3.937-.372-5.984-1.55-8.31-1.613-3.163-3.938-4.651-7.288-4.651-3.07 0-5.581 1.55-6.946 4.28-1.333 2.666-1.674 4.65-1.52 9.364.094 3.97.156 4.28 1.148 6.42 1.21 2.604 2.48 3.937 4.559 4.744 1.984.775 3.597.775 5.705-.031z"></path>
          <path d="M7457.287 7436.501c-3.628-1.643-5.768-3.597-7.287-6.605-1.55-3.132-2.14-5.923-2.14-10.388 0-8.435 2.977-13.924 9.117-16.684 2.233-1.023 2.667-1.116 5.334-1.116 3.876 0 7.008 1.178 9.737 3.66 2.853 2.542 2.853 2.604.713 4.558l-1.799 1.643-1.705-1.643c-3.907-3.814-9.551-4-12.9-.403-1.24 1.302-2.512 3.72-2.915 5.52-.434 2.015-.372 7.628.124 9.457.558 2.078 1.798 4.466 2.884 5.489 1.302 1.24 4.186 2.419 5.954 2.419 2.201 0 5.085-1.396 7.008-3.38l1.55-1.582 1.83 1.83 1.83 1.86-1.21 1.334c-1.891 2.109-2.76 2.729-5.489 3.876-2.17.961-2.945 1.116-5.333 1.21-2.667.092-2.915.061-5.303-1.055z"></path>
          <path d="M7486.932 7434.423v-2.635h7.442V7407.29h-7.752v-5.272H7507.74l-.093 2.574-.093 2.543-3.783.093-3.814.093v24.436l3.659.093 3.628.092.093 2.574.093 2.543h-20.497z"></path>
          <path d="M7523.214 7419.539v-17.52H7546.161v5.271H7528.486v10.853h12.404v5.272h-12.404V7431.788H7546.16v5.271H7523.214z"></path>
          <path d="M7556.767 7434.516l.093-2.573 5.364-.093 5.334-.062v-29.77h5.272v29.77h11.163v5.271H7556.674z"></path>
          <path d="M7592.583 7436.067c.341-.558 3.163-4.962 6.233-9.8l5.644-8.744V7402.018h5.271V7417.71l5.055 7.908c2.79 4.341 5.582 8.682 6.202 9.675l1.147 1.767H7615.778l-4.341-6.977c-2.388-3.814-4.435-6.853-4.559-6.73-.123.125-2.077 3.226-4.372 6.885l-4.155 6.667-3.163.093-3.194.093z"></path>
          <path d="M7292.408 7422.299c-.124-.124-.217-2.636-.217-5.613 0-4.155-.093-5.365-.403-5.365-.217 0-2.481.713-5.024 1.55-2.574.869-4.93 1.52-5.24 1.49-.435-.063-.745-.683-1.303-2.544-.372-1.333-.62-2.636-.527-2.853.093-.248 2.45-1.178 5.24-2.077 2.791-.869 5.086-1.706 5.086-1.83 0-.093-1.395-2.077-3.101-4.434-1.706-2.326-3.101-4.404-3.101-4.652 0-.558 3.628-3.256 4.341-3.256.31 0 1.799 1.83 3.598 4.342 1.674 2.356 3.163 4.31 3.287 4.341.093 0 1.612-1.954 3.349-4.341 1.736-2.388 3.349-4.342 3.628-4.342.868 0 4.496 2.822 4.341 3.38-.062.28-1.457 2.326-3.1 4.559-1.675 2.232-3.009 4.217-3.009 4.372 0 .155 2.295.992 5.086 1.892 2.79.868 5.148 1.798 5.24 2.046.187.497-1.054 4.993-1.519 5.458-.217.217-1.83-.186-5.303-1.395-2.76-.93-5.147-1.706-5.333-1.706-.217 0-.341 1.892-.403 5.52l-.093 5.489-2.636.093c-1.458.03-2.76 0-2.884-.124z"></path>
          <path d="M7684.558 7398.7c-.31-.093-.403-1.55-.403-5.706 0-3.039-.062-5.55-.124-5.55-.093 0-2.326.775-4.993 1.705-2.697.93-5.147 1.706-5.457 1.706-.434 0-.714-.496-1.21-2.233-.372-1.24-.713-2.419-.775-2.636-.248-.713.682-1.178 5.52-2.729 2.667-.837 4.868-1.643 4.868-1.767 0-.124-1.395-2.109-3.1-4.435-1.706-2.356-3.102-4.434-3.102-4.682 0-.527 3.598-3.225 4.31-3.225.31 0 1.706 1.643 3.536 4.186 1.674 2.295 3.163 4.248 3.318 4.342.124.093 1.674-1.8 3.411-4.187 1.954-2.698 3.349-4.341 3.69-4.341.9 0 4.435 2.76 4.31 3.349-.092.31-1.488 2.357-3.131 4.59-1.675 2.232-3.008 4.186-3.008 4.34 0 .156 2.294 1.024 5.085 1.892 2.791.9 5.148 1.83 5.24 2.078.094.217-.154 1.52-.526 2.853-.558 1.922-.838 2.48-1.334 2.543-.496.062-6.698-1.892-10.078-3.194-.527-.217-.558.186-.558 5.364 0 4.807-.062 5.613-.496 5.768-.558.217-4.435.217-4.993-.03z"></path>
          <path d="M7317.526 7373.582c-.124-.093-.217-2.605-.217-5.582 0-2.946-.124-5.364-.248-5.364s-2.543.775-5.334 1.705c-2.946.992-5.21 1.582-5.365 1.427-.403-.404-1.705-5.086-1.55-5.551.093-.217 2.45-1.116 5.24-1.985 2.791-.899 5.086-1.736 5.086-1.86 0-.124-1.395-2.14-3.101-4.466s-3.101-4.403-3.101-4.651c0-.527 3.907-3.287 4.496-3.163.249.062 1.83 1.984 3.505 4.28 1.674 2.294 3.163 4.186 3.318 4.155.186 0 1.643-1.83 3.256-4.094 1.612-2.232 3.194-4.155 3.504-4.248.65-.248 4.558 2.45 4.558 3.1 0 .249-1.395 2.358-3.1 4.683-1.706 2.326-3.102 4.31-3.102 4.435 0 .124 2.295.961 5.148 1.86 2.822.869 5.179 1.799 5.272 2.047.217.496-1.024 4.837-1.551 5.334-.28.31-1.395.062-5.458-1.303-2.79-.93-5.147-1.705-5.178-1.705-.062 0-.093 2.294-.093 5.085s-.093 5.303-.186 5.582c-.155.403-.714.496-2.884.496-1.489 0-2.822-.093-2.915-.217z"></path>
          <path d="M7652.928 7354.976c-.31-.093-.403-1.55-.403-5.706 0-3.039-.062-5.55-.124-5.55s-2.388.775-5.148 1.736c-2.76.93-5.24 1.675-5.488 1.613-.559-.093-2.047-4.714-1.799-5.52.093-.31 1.86-1.023 4.93-1.985 2.636-.837 4.931-1.612 5.117-1.705.217-.155-.868-1.892-2.915-4.683-2.201-3.039-3.163-4.59-2.977-4.9.372-.681 4.063-3.131 4.497-2.976.186.062 1.736 2.078 3.442 4.465 1.705 2.357 3.163 4.31 3.256 4.31.093 0 1.271-1.55 2.636-3.441 3.69-5.148 4.093-5.582 4.9-5.18 1.116.59 3.938 2.76 3.938 3.04 0 .155-1.458 2.264-3.257 4.713-1.767 2.45-3.194 4.497-3.132 4.559.094.062 2.42.837 5.21 1.736 4.435 1.396 5.055 1.675 5.148 2.326.155 1.023-1.117 4.993-1.675 5.21-.34.124-5.923-1.613-10.264-3.225-.31-.124-.403 1.085-.403 5.426 0 4.807-.062 5.613-.496 5.768-.558.217-4.435.217-4.993-.03z"></path>
          <path d="M7356.474 7334.82c-.31-.093-.403-1.55-.403-5.706 0-3.039-.031-5.55-.093-5.55s-2.295.775-4.993 1.705c-2.666.93-5.147 1.705-5.457 1.705-.465 0-.744-.465-1.24-2.232-.373-1.24-.714-2.42-.776-2.636-.217-.682.992-1.303 5.675-2.76 3.442-1.085 4.682-1.581 4.59-1.892-.094-.248-1.52-2.294-3.164-4.59-1.705-2.387-2.915-4.371-2.822-4.62.28-.682 3.536-2.976 4.218-2.976.434 0 1.55 1.302 3.752 4.372 1.737 2.388 3.287 4.248 3.411 4.093.155-.124 1.582-2.046 3.194-4.28 1.582-2.2 3.132-4.061 3.411-4.123.62-.124 4.559 2.604 4.559 3.132 0 .217-1.427 2.294-3.132 4.651-1.737 2.357-3.008 4.403-2.884 4.527.155.156 2.387.9 4.93 1.706 2.574.806 4.838 1.675 5.055 1.892.651.62-.806 5.55-1.644 5.674-.34.031-2.822-.682-5.488-1.643l-4.9-1.706v5.148c0 2.946-.124 5.396-.31 5.737-.28.496-.651.589-2.729.558-1.302 0-2.574-.093-2.76-.186z"></path>
          <path d="M7611.685 7319.625c-.31-.093-.403-1.55-.403-5.706 0-3.039-.062-5.55-.124-5.55s-2.388.775-5.179 1.736c-3.349 1.116-5.24 1.644-5.52 1.458-.682-.435-1.891-4.931-1.457-5.49.186-.247 2.233-1.023 4.527-1.736 2.295-.713 4.497-1.426 4.9-1.581.682-.248.62-.403-1.86-3.752-3.722-5.117-4-5.551-3.722-6.016.403-.714 3.783-2.977 4.31-2.853.28.062 1.892 1.984 3.567 4.279 1.674 2.295 3.163 4.217 3.287 4.248.124.031 1.333-1.488 2.698-3.38 3.194-4.434 3.845-5.21 4.372-5.21.527 0 4.062 2.482 4.28 3.009.092.186-1.303 2.356-3.07 4.806-1.768 2.45-3.133 4.528-3.009 4.652.124.093 2.45.899 5.18 1.798 4.775 1.52 5.488 1.892 5.27 2.605-.061.186-.402 1.365-.774 2.605-.497 1.705-.776 2.233-1.21 2.233-.465 0-7.845-2.388-10.016-3.256-.527-.218-.558.155-.558 5.364 0 4.807-.062 5.613-.496 5.768-.559.217-4.435.217-4.993-.03z"></path>
          <path d="M7402.803 7306.632c-.124-.124-.217-2.636-.217-5.613 0-2.946-.124-5.365-.248-5.365s-2.543.776-5.334 1.706c-2.946.992-5.21 1.582-5.365 1.426-.403-.403-1.705-5.085-1.55-5.55.093-.186 2.45-1.117 5.24-2.016 3.04-.961 5.024-1.736 4.962-1.954-.062-.186-1.458-2.17-3.101-4.372-1.643-2.233-2.977-4.28-2.977-4.558 0-.528 3.504-3.287 4.217-3.287.466 0 1.706 1.519 4.776 5.83 1.116 1.58 2.109 2.852 2.202 2.852.124 0 1.612-1.953 3.349-4.341 1.736-2.388 3.38-4.341 3.628-4.341.651 0 4.465 2.76 4.465 3.225 0 .217-1.457 2.356-3.256 4.775-3.163 4.28-3.225 4.435-2.543 4.683.403.155 2.76.93 5.241 1.705 2.48.806 4.59 1.613 4.683 1.86.186.497-1.055 4.993-1.52 5.458-.217.217-1.954-.248-5.396-1.395-2.79-.93-5.21-1.706-5.333-1.706-.124 0-.28 2.481-.31 5.52l-.093 5.489-2.636.093c-1.458.03-2.76 0-2.884-.124z"></path>
          <path d="M7562.69 7294.848c-.31-.124-.404-1.581-.404-5.706v-5.55l-5.023 1.705c-2.76.93-5.272 1.675-5.582 1.675-.403 0-.682-.465-1.023-1.768-.28-.992-.62-2.17-.776-2.605-.186-.589-.124-.961.217-1.271.249-.28 2.605-1.147 5.241-1.985 2.636-.837 4.776-1.612 4.776-1.736 0-.124-1.396-2.14-3.101-4.466-1.706-2.325-3.101-4.403-3.101-4.651 0-.527 3.659-3.225 4.372-3.225.31 0 1.706 1.643 3.535 4.186 1.644 2.295 3.101 4.249 3.256 4.342.155.093 1.706-1.8 3.442-4.187 1.799-2.419 3.411-4.341 3.69-4.341.714 0 4.342 2.698 4.342 3.225 0 .248-1.396 2.326-3.101 4.651-1.706 2.326-3.101 4.342-3.101 4.466 0 .124 2.17.899 4.837 1.736 2.667.869 5.024 1.706 5.303 1.892.403.31.403.62-.217 2.822-.372 1.333-.837 2.636-1.054 2.853-.31.31-1.303.062-5.272-1.334-2.698-.93-5.117-1.705-5.334-1.705-.34 0-.434 1.116-.496 5.52l-.093 5.488-2.48.062c-1.365.031-2.667-.03-2.853-.093z"></path>
          <path d="M7454.775 7290.476c-.31-.093-.403-1.55-.403-5.737 0-4.341-.093-5.55-.372-5.458-3.07 1.148-10.264 3.38-10.543 3.287-.434-.155-1.83-4.868-1.613-5.582.093-.34 1.737-1.023 5.24-2.17l5.055-1.644-2.45-3.41c-4.31-5.955-4.124-5.676-3.658-6.265.775-.93 4.062-2.884 4.465-2.636.248.124 1.799 2.14 3.535 4.497l3.101 4.28 1.21-1.644c.65-.9 2.14-2.946 3.286-4.497 1.148-1.581 2.202-2.884 2.357-2.884.341 0 3.876 2.388 4.342 2.946.403.496.527.341-3.66 5.985-1.426 1.954-2.542 3.597-2.48 3.66.062.03 2.356.806 5.054 1.674 2.73.9 5.086 1.736 5.272 1.892.341.31-.682 4.682-1.271 5.488-.373.496-.776.403-5.303-1.147-2.698-.93-5.086-1.737-5.272-1.83-.31-.093-.403 1.086-.403 5.272 0 3.783-.124 5.52-.372 5.768-.372.372-4.31.496-5.117.155z"></path>
          <path d="M7508.205 7285.576c-.093-.279-.186-2.822-.186-5.612 0-2.791-.062-5.086-.124-5.086-.093 0-2.388.775-5.116 1.736-2.76.962-5.18 1.675-5.396 1.582-.217-.093-.713-1.302-1.117-2.698-.589-2.14-.62-2.636-.279-2.946.217-.217 2.605-1.116 5.303-2.015 3.35-1.086 4.807-1.706 4.652-1.954-.125-.217-1.582-2.233-3.225-4.497-1.675-2.294-2.946-4.34-2.884-4.558.248-.62 3.69-2.946 4.372-2.946.372 0 1.612 1.489 3.66 4.341 1.705 2.388 3.162 4.342 3.255 4.342.093 0 1.272-1.582 2.636-3.473 3.69-5.179 4.093-5.582 4.9-5.148 1.178.62 3.938 2.729 3.938 3.008 0 .155-1.148 1.86-2.574 3.783-1.395 1.954-2.884 3.97-3.256 4.528l-.713.992 5.21 1.675c6.015 1.922 5.798 1.705 4.713 5.333-.527 1.768-.806 2.326-1.24 2.326-.28 0-2.73-.775-5.396-1.706-2.698-.93-4.93-1.705-4.993-1.705-.062 0-.155 2.48-.186 5.52l-.093 5.488-2.822.093c-2.388.062-2.884 0-3.039-.403z"></path>
        </g>
      </g>
    </svg>
